<mxfile host="app.diagrams.net" modified="2023-09-23T16:10:10.918Z" agent="Mozilla/5.0 (X11; Linux x86_64) AppleWebKit/537.36 (KHTML, like Gecko) Chrome/116.0.0.0 Safari/537.36" version="21.8.1" etag="QTguV5FnyEgeqEKlAbir" type="github">
  <diagram name="Page-1" id="hwnUT1CZ99CX24yM5nMf">
    <mxGraphModel>
      <root>
        <mxCell id="0" />
        <mxCell id="1" parent="0" />
      </root>
    </mxGraphModel>
  </diagram>
</mxfile>
